<svg xmlns="http://www.w3.org/2000/svg" xmlns:svg="http://www.w3.org/2000/svg" id="svg16" width="26" height="26" fill="none" version="1.1" viewBox="0 0 26 26"><metadata id="metadata22"/><g id="Layer_2" data-name="Layer 2" transform="matrix(0.24576388,0,0,0.24537993,0.76140807,1.4444918)"><g id="Layer_1-2" data-name="Layer 1"><polygon id="polygon8" points="74.39 72.34 50.24 30.62 26.1 72.34" class="cls-1" style="fill:#fff"/><path id="path10" d="m 50.25,0 a 2.31,2.31 0 0 0 -2,1.16 L 0.31,84 a 2.32,2.32 0 0 0 0,2.32 l 29.28,-17 20.66,-35.7 z" class="cls-2" style="fill:#ff4724"/><path id="path12" d="M 100.18,84 52.25,1.16 A 2.31,2.31 0 0 0 50.25,0 v 33.63 l 20.65,35.7 29.28,17 a 2.32,2.32 0 0 0 0,-2.33 z" class="cls-3" style="fill:#9e1f63"/><path id="path14" d="M 100.18,86.29 70.9,69.29 H 29.59 l -29.28,17 a 2.32,2.32 0 0 0 2,1.16 h 95.86 a 2.32,2.32 0 0 0 2.01,-1.16 z" class="cls-4" style="fill:#662d91"/></g></g></svg>