<svg xmlns="http://www.w3.org/2000/svg" xmlns:svg="http://www.w3.org/2000/svg" id="svg10" width="26" height="26" version="1" viewBox="0 0 19.5 19.5"><metadata id="metadata11"/><defs id="defs9"><mask id="mask-2" fill="#fff"><polygon id="use17" points="0 59.459 0 .4 58.923 .4 58.923 59.459" transform="scale(0.74999998)"/></mask></defs><g style="fill:none;fill-rule:evenodd;stroke:none;stroke-width:1" id="Home" transform="matrix(0.34058839,0,0,0.32095808,-17.136275,-16.004286)"><g id="HERO"><g id="Group-14" transform="translate(50,50)"><g id="Logo---WBTC"><polygon id="Fill-1" points="77.173 45.043 67.52 15.438 74.213 15.438 79.994 33.206 86.735 15.416 90.861 15.416 97.693 33.184 103.388 15.4 110.119 15.4 100.546 45.022 95.412 45.022 88.854 27.373 82.307 45.043" style="fill:#fff"/><g id="Group-21" transform="translate(0,0.140541)"><path id="Fill-2" d="m 128.34691,39.38373 c 2.95534,0 4.70266,-1.486487 4.70266,-3.902703 0,-2.415676 -1.75811,-3.972973 -4.71345,-3.972973 h -7.55013 v 7.875676 z m -7.55014,-12.65946 h 6.80591 c 1.98461,0 3.30588,-1.210811 3.30049,-3.124324 0,-1.794595 -1.32667,-2.924324 -3.31127,-2.918919 l -6.80591,-1.9e-5 z m 18.62187,9.286487 c 0,5.302702 -3.95303,8.816216 -10.3329,8.827027 H 114.4223 l -0.0431,-29.632433 h 13.88686 c 5.56013,0 9.0278,3.027027 9.03319,7.745946 0.0868,2.111892 -0.83429,4.138919 -2.48076,5.45946 2.90573,1.38973 4.71237,4.375135 4.60019,7.6 z" style="fill:#fff"/><polygon id="Fill-4" points="157.809 44.8 151.391 44.8 151.359 20.784 142.493 20.784 142.493 15.189 166.637 15.157 166.637 20.773 157.776 20.784" style="fill:#fff"/><path id="Fill-6" d="m 48.045881,12.794541 -1.617887,1.621621 c 8.001526,8.770811 8.001526,22.212973 0,30.983784 l 1.617887,1.621622 c 8.905384,-9.677298 8.905384,-24.587028 0,-34.264865 z" style="fill:#d4d3d7"/><path id="Fill-8" d="m 14.016287,12.935243 c 8.750607,-8.0205403 22.161805,-8.0205403 30.912412,0 l 1.617886,-1.621621 c -9.655544,-8.9259463 -24.53039,-8.9259463 -34.185935,0 z" style="fill:#d4d3d7"/><path id="Fill-10" d="m 12.506368,45.416216 c -7.9918184,-8.768648 -7.9918184,-22.198919 0,-30.967567 l -1.617886,-1.621622 c -8.905385,9.677838 -8.905385,24.587027 0,34.264865 z" style="fill:#d4d3d7"/><path id="Fill-12" d="m 44.91252,46.913297 c -8.750607,8.020541 -22.161805,8.020541 -30.912412,0 l -1.617886,1.621622 c 9.655545,8.925946 24.530391,8.925946 34.185935,0 z" style="fill:#d4d3d7"/><path id="Fill-14" d="m 34.363902,25.8 c 0,3.243243 -5.05859,2.848649 -6.665691,2.848649 v -5.713514 c 1.607101,0 6.665691,-0.508108 6.665691,2.864865 m 1.321274,8.87027 c 0,3.545946 -6.06168,3.140541 -7.992358,3.140541 v -6.291892 c 1.930678,0.0054 7.992358,-0.551351 7.992358,3.151351 M 39.675962,24.518919 C 39.352385,21.135135 36.44019,20 32.756802,19.654054 v -4.664865 h -2.84748 v 4.572973 c -0.74962,0 -1.51542,0 -2.275826,0.02703 v -4.6 h -2.831301 v 4.691892 h -1.812032 -3.958429 v 3.054054 c 0,0 2.103252,-0.03784 2.070895,0 0.78845,-0.08703 1.503555,0.467568 1.617886,1.254054 v 12.848649 c -0.03451,0.557297 -0.51287,0.98054 -1.068884,0.946486 -0.0032,0 -0.0065,0 -0.0097,-5.4e-4 0.03775,0.03243 -2.070894,0 -2.070894,0 l -0.56626,3.410811 h 3.710352 2.038536 v 4.767567 h 2.84748 v -4.697297 h 2.275827 v 4.675675 h 2.852872 V 41.227027 C 37.540352,40.935135 40.89477,39.745946 41.31542,35.232432 41.655176,31.6 39.951003,29.978378 37.227561,29.324324 c 1.655637,-0.843243 2.696477,-2.329729 2.448401,-4.805405" style="fill:#fff"/><g id="Group-18"><mask id="mask4535" fill="#fff"><polygon id="use4533" points="58.923 59.459 0 59.459 0 .4 58.923 .4" transform="scale(0.74999998)"/></mask><path id="Fill-16" d="M 29.45626,2.7027027 C 14.46277,2.7118919 2.3151412,14.901622 2.3243092,29.92973 c 0.00917,15.028108 12.1708188,27.203783 27.1643088,27.194594 14.983244,-0.0086 27.126019,-12.182702 27.131951,-27.2 C 56.602773,14.898378 44.447594,2.7248649 29.45626,2.7189189 Z m 0,56.7567563 C 13.185179,59.456757 -0.0032897,46.233513 -5.3929539e-5,29.924324 0.00318184,13.615135 13.195965,0.39675676 29.467046,0.4 45.734353,0.40324324 58.920664,13.61946 58.923361,29.924324 58.905564,46.228649 45.723027,59.441622 29.45626,59.459459 Z" mask="url(#mask-2)" style="fill:#fff"/></g><path id="Fill-19" d="m 192.14545,35.583568 c -1.5041,2.518918 -4.2448,4.03081 -7.17263,3.956756 -5.09634,0 -8.99006,-4.118919 -9.00084,-9.54054 -0.0108,-5.421081 3.87753,-9.556757 8.97387,-9.567568 2.91975,-0.07459 5.65667,1.422703 7.17263,3.924324 l 6.47155,-1.345945 c -2.38854,-5.216217 -7.55014,-8.470271 -13.63339,-8.464325 -8.41678,-0.07838 -15.30305,6.696757 -15.38124,15.132973 -0.001,0.108649 -0.001,0.217297 5.4e-4,0.325946 -0.075,8.418379 6.6727,15.303784 15.07168,15.37946 0.1084,5.4e-4 0.2168,5.4e-4 0.3252,-5.41e-4 6.02932,0 11.15263,-3.18973 13.54225,-8.476216 z" style="fill:#fff"/></g></g></g></g></g></svg>