<svg xmlns="http://www.w3.org/2000/svg" width="26" height="26" fill="none" viewBox="0 0 26 26"><circle cx="13" cy="13" r="13" fill="#393939"/><path fill="#fff" d="M12.9995 2.60156L12.8495 3.05735V16.1234L12.9995 16.2753L18.9996 12.6796L12.9995 2.60156Z"/><path fill="#fff" d="M12.9995 2.60156L6.99951 12.679L12.9995 16.2753L12.9997 9.94426L12.9995 2.60156Z"/><path fill="#fff" d="M12.9998 17.4398L12.8998 17.4904V22.2003L12.9998 22.4028L19 13.8441L12.9998 17.4398Z"/><path fill="#fff" d="M12.9998 22.4028V17.4398L6.99967 13.8441L12.9998 22.4028Z"/><path fill="#fff" d="M12.9995 16.2753L18.9996 12.6796L12.9997 9.94426L12.9995 16.2753Z"/><path fill="#fff" d="M6.99951 12.679L12.9995 16.2753L12.9997 9.94426L6.99951 12.679Z"/></svg>